HIERARCHY
ROOT Hips
{
	OFFSET 0.000000 71.427986 0.000000
	CHANNELS 6 Xposition Yposition Zposition Xrotation Yrotation Zrotation
	JOINT Pelvis
	{
		OFFSET 0.000000 0.000000 0.000000
		CHANNELS 3 Xrotation Yrotation Zrotation
		JOINT LeftUpLeg
		{
			OFFSET 6.797100 -2.508499 -1.318700
			CHANNELS 3 Xrotation Yrotation Zrotation
			JOINT LeftLeg
			{
				OFFSET 0.069008 -29.241863 0.690200
				CHANNELS 3 Xrotation Yrotation Zrotation
				JOINT LeftFoot
				{
					OFFSET -0.069008 -29.568123 -0.266800
					CHANNELS 3 Xrotation Yrotation Zrotation
					JOINT LeftToeBase
					{
						OFFSET 3.145500 -8.631000 16.059900
						CHANNELS 3 Xrotation Yrotation Zrotation
						End Site
						{
							OFFSET 0.000000 18.501587 0.000000
						}
					}
				}
			}
			JOINT Left_ShortSleeve
			{
				OFFSET 0.265923 -10.480953 1.153800
				CHANNELS 3 Xrotation Yrotation Zrotation
				End Site
				{
					OFFSET 1.725763 19.823879 0.000000
				}
			}
		}
		JOINT RightUpLeg
		{
			OFFSET -6.797100 -2.508499 -1.318700
			CHANNELS 3 Xrotation Yrotation Zrotation
			JOINT RightLeg
			{
				OFFSET -0.082453 -29.241932 0.688000
				CHANNELS 3 Xrotation Yrotation Zrotation
				JOINT RightFoot
				{
					OFFSET 0.082453 -29.568058 -0.264600
					CHANNELS 3 Xrotation Yrotation Zrotation
					JOINT RightToeBase
					{
						OFFSET -3.115300 -8.682800 16.113400
						CHANNELS 3 Xrotation Yrotation Zrotation
						End Site
						{
							OFFSET 0.000000 18.567114 0.000000
						}
					}
				}
			}
			JOINT Right_ShortSleeve
			{
				OFFSET -0.265923 -10.480953 1.153800
				CHANNELS 3 Xrotation Yrotation Zrotation
				End Site
				{
					OFFSET -1.725766 19.823910 0.000000
				}
			}
		}
	}
	JOINT Spine
	{
		OFFSET 0.000000 13.368103 0.470500
		CHANNELS 3 Xrotation Yrotation Zrotation
		JOINT Spine1
		{
			OFFSET 0.147000 13.837402 0.538800
			CHANNELS 3 Xrotation Yrotation Zrotation
			JOINT Spine2
			{
				OFFSET 0.168000 16.242897 -1.435500
				CHANNELS 3 Xrotation Yrotation Zrotation
				JOINT Neck
				{
					OFFSET 0.217200 18.631500 -1.679100
					CHANNELS 3 Xrotation Yrotation Zrotation
					JOINT Head
					{
						OFFSET 0.000000 6.599396 1.385900
						CHANNELS 3 Xrotation Yrotation Zrotation
						JOINT Hat
						{
							OFFSET -0.532200 27.220596 -10.096100
							CHANNELS 3 Xrotation Yrotation Zrotation
							End Site
							{
								OFFSET 0.000000 22.029861 0.000000
							}
						}
						JOINT HairD
						{
							OFFSET -10.777400 17.437393 -1.325900
							CHANNELS 3 Xrotation Yrotation Zrotation
							JOINT HairD1
							{
								OFFSET -3.290299 -11.051193 1.062200
								CHANNELS 3 Xrotation Yrotation Zrotation
								End Site
								{
									OFFSET 0.000000 11.579437 0.000000
								}
							}
						}
						JOINT HairB
						{
							OFFSET -10.777400 17.437393 1.467900
							CHANNELS 3 Xrotation Yrotation Zrotation
							JOINT HairB1
							{
								OFFSET -1.561200 -12.956299 3.590200
								CHANNELS 3 Xrotation Yrotation Zrotation
								End Site
								{
									OFFSET 0.000000 13.534866 0.000000
								}
							}
						}
						JOINT HairA
						{
							OFFSET 9.713100 17.437393 1.467900
							CHANNELS 3 Xrotation Yrotation Zrotation
							JOINT HairA1
							{
								OFFSET 1.561200 -12.956299 3.590200
								CHANNELS 3 Xrotation Yrotation Zrotation
								End Site
								{
									OFFSET 0.000000 13.534866 0.000000
								}
							}
						}
						JOINT HairC
						{
							OFFSET 9.713100 17.437393 -1.325900
							CHANNELS 3 Xrotation Yrotation Zrotation
							JOINT HairC1
							{
								OFFSET 3.290300 -11.051193 1.062200
								CHANNELS 3 Xrotation Yrotation Zrotation
								End Site
								{
									OFFSET 0.000000 11.579437 0.000000
								}
							}
						}
					}
				}
				JOINT LeftShoulder
				{
					OFFSET 5.101800 15.108002 -2.763700
					CHANNELS 3 Xrotation Yrotation Zrotation
					JOINT LeftArm
					{
						OFFSET 9.825497 2.506317 -1.597400
						CHANNELS 3 Xrotation Yrotation Zrotation
						JOINT LeftForeArm
						{
							OFFSET 21.966244 0.000000 0.000000
							CHANNELS 3 Xrotation Yrotation Zrotation
							JOINT LeftHand
							{
								OFFSET 33.879036 0.000000 0.000000
								CHANNELS 3 Xrotation Yrotation Zrotation
								JOINT LeftHandThumb1
								{
									OFFSET 6.715286 -2.359680 3.363841
									CHANNELS 3 Xrotation Yrotation Zrotation
									JOINT LeftHandThumb2
									{
										OFFSET 2.507072 -1.447464 1.447461
										CHANNELS 3 Xrotation Yrotation Zrotation
										JOINT LeftHandThumb3
										{
											OFFSET 2.898338 -1.673355 1.673357
											CHANNELS 3 Xrotation Yrotation Zrotation
											End Site
											{
												OFFSET -0.295959 3.727692 -0.131651
											}
										}
									}
								}
								JOINT LeftHandIndex1
								{
									OFFSET 14.190811 -0.254547 3.840278
									CHANNELS 3 Xrotation Yrotation Zrotation
									JOINT LeftHandIndex2
									{
										OFFSET 3.551727 0.000000 -0.000000
										CHANNELS 3 Xrotation Yrotation Zrotation
										JOINT LeftHandIndex3
										{
											OFFSET 2.894196 0.000000 0.000000
											CHANNELS 3 Xrotation Yrotation Zrotation
											End Site
											{
												OFFSET -1.000603 2.690872 0.366626
											}
										}
									}
								}
								JOINT LeftHandMiddle1
								{
									OFFSET 13.776489 0.000000 0.000000
									CHANNELS 3 Xrotation Yrotation Zrotation
									JOINT LeftHandMiddle2
									{
										OFFSET 3.438232 0.000000 0.000000
										CHANNELS 3 Xrotation Yrotation Zrotation
										JOINT LeftHandMiddle3
										{
											OFFSET 3.691551 0.000000 0.000000
											CHANNELS 3 Xrotation Yrotation Zrotation
											End Site
											{
												OFFSET -1.082298 3.499527 0.457670
											}
										}
									}
								}
								JOINT LeftHandRing1
								{
									OFFSET 13.966164 -0.268127 -3.067488
									CHANNELS 3 Xrotation Yrotation Zrotation
									JOINT LeftHandRing2
									{
										OFFSET 3.162567 0.000000 0.000000
										CHANNELS 3 Xrotation Yrotation Zrotation
										JOINT LeftHandRing3
										{
											OFFSET 3.324348 0.000000 0.000000
											CHANNELS 3 Xrotation Yrotation Zrotation
											End Site
											{
												OFFSET -0.861900 3.184998 0.405154
											}
										}
									}
								}
								JOINT LeftHandPinky1
								{
									OFFSET 13.131393 -0.168503 -5.746925
									CHANNELS 3 Xrotation Yrotation Zrotation
									JOINT LeftHandPinky2
									{
										OFFSET 2.849182 0.000000 0.000000
										CHANNELS 3 Xrotation Yrotation Zrotation
										JOINT LeftHandPinky3
										{
											OFFSET 2.805038 0.000000 0.000000
											CHANNELS 3 Xrotation Yrotation Zrotation
											End Site
											{
												OFFSET -0.882500 2.642609 0.325652
											}
										}
									}
								}
							}
							JOINT Left_Sleeve
							{
								OFFSET 6.592125 -0.646545 0.805568
								CHANNELS 3 Xrotation Yrotation Zrotation
								End Site
								{
									OFFSET -0.000179 20.275787 -0.000000
								}
							}
						}
					}
				}
				JOINT RightShoulder
				{
					OFFSET -5.731700 15.108002 -2.763700
					CHANNELS 3 Xrotation Yrotation Zrotation
					JOINT RightArm
					{
						OFFSET -9.825497 2.506317 -1.597400
						CHANNELS 3 Xrotation Yrotation Zrotation
						JOINT RightForeArm
						{
							OFFSET -21.966242 0.000000 0.000000
							CHANNELS 3 Xrotation Yrotation Zrotation
							JOINT RightHand
							{
								OFFSET -33.879032 0.000000 0.000000
								CHANNELS 3 Xrotation Yrotation Zrotation
								JOINT RightHandThumb1
								{
									OFFSET -6.715286 -2.359680 3.363841
									CHANNELS 3 Xrotation Yrotation Zrotation
									JOINT RightHandThumb2
									{
										OFFSET -2.507072 -1.447464 1.447461
										CHANNELS 3 Xrotation Yrotation Zrotation
										JOINT RightHandThumb3
										{
											OFFSET -2.898338 -1.673355 1.673357
											CHANNELS 3 Xrotation Yrotation Zrotation
											End Site
											{
												OFFSET 0.295959 3.727692 -0.131651
											}
										}
									}
								}
								JOINT RightHandIndex1
								{
									OFFSET -14.190811 -0.254547 3.840278
									CHANNELS 3 Xrotation Yrotation Zrotation
									JOINT RightHandIndex2
									{
										OFFSET -3.551727 0.000000 -0.000000
										CHANNELS 3 Xrotation Yrotation Zrotation
										JOINT RightHandIndex3
										{
											OFFSET -2.894196 0.000000 0.000000
											CHANNELS 3 Xrotation Yrotation Zrotation
											End Site
											{
												OFFSET 1.000603 2.690872 0.366626
											}
										}
									}
								}
								JOINT RightHandMiddle1
								{
									OFFSET -13.776489 0.000000 0.000000
									CHANNELS 3 Xrotation Yrotation Zrotation
									JOINT RightHandMiddle2
									{
										OFFSET -3.438232 0.000000 0.000000
										CHANNELS 3 Xrotation Yrotation Zrotation
										JOINT RightHandMiddle3
										{
											OFFSET -3.691551 0.000000 0.000000
											CHANNELS 3 Xrotation Yrotation Zrotation
											End Site
											{
												OFFSET 1.082298 3.499527 0.457670
											}
										}
									}
								}
								JOINT RightHandRing1
								{
									OFFSET -13.966164 -0.268127 -3.067488
									CHANNELS 3 Xrotation Yrotation Zrotation
									JOINT RightHandRing2
									{
										OFFSET -3.162567 0.000000 0.000000
										CHANNELS 3 Xrotation Yrotation Zrotation
										JOINT RightHandRing3
										{
											OFFSET -3.324348 0.000000 0.000000
											CHANNELS 3 Xrotation Yrotation Zrotation
											End Site
											{
												OFFSET 0.861900 3.184998 0.405154
											}
										}
									}
								}
								JOINT RightHandPinky1
								{
									OFFSET -13.131393 -0.168503 -5.746925
									CHANNELS 3 Xrotation Yrotation Zrotation
									JOINT RightHandPinky2
									{
										OFFSET -2.849182 0.000000 0.000000
										CHANNELS 3 Xrotation Yrotation Zrotation
										JOINT RightHandPinky3
										{
											OFFSET -2.805038 0.000000 0.000000
											CHANNELS 3 Xrotation Yrotation Zrotation
											End Site
											{
												OFFSET 0.882500 2.642609 0.325652
											}
										}
									}
								}
							}
							JOINT Right_Sleeve
							{
								OFFSET -6.592125 -0.646545 0.805568
								CHANNELS 3 Xrotation Yrotation Zrotation
								End Site
								{
									OFFSET 0.000179 20.275787 -0.000000
								}
							}
						}
					}
				}
				JOINT Bind_Right_JacketString
				{
					OFFSET -3.534800 11.969597 7.200700
					CHANNELS 3 Xrotation Yrotation Zrotation
					JOINT Bind_Right_JacketString1
					{
						OFFSET -0.319900 -6.102600 2.794100
						CHANNELS 3 Xrotation Yrotation Zrotation
						End Site
						{
							OFFSET 0.000000 6.719452 0.000000
						}
					}
				}
				JOINT Bind_Left_JacketString
				{
					OFFSET 2.904800 11.969597 7.200700
					CHANNELS 3 Xrotation Yrotation Zrotation
					JOINT Bind_Left_JacketString1
					{
						OFFSET 0.364800 -5.904503 3.186800
						CHANNELS 3 Xrotation Yrotation Zrotation
						End Site
						{
							OFFSET 0.000000 6.719513 0.000000
						}
					}
				}
				JOINT HairE
				{
					OFFSET 5.915200 17.612701 -11.592200
					CHANNELS 3 Xrotation Yrotation Zrotation
					JOINT HairE1
					{
						OFFSET 0.289200 -7.171898 -1.284500
						CHANNELS 3 Xrotation Yrotation Zrotation
						End Site
						{
							OFFSET 0.000000 7.291756 0.000000
						}
					}
				}
				JOINT HairF
				{
					OFFSET -0.864800 17.612701 -11.592200
					CHANNELS 3 Xrotation Yrotation Zrotation
					JOINT HairF1
					{
						OFFSET 0.000000 -14.087097 -2.127501
						CHANNELS 3 Xrotation Yrotation Zrotation
						End Site
						{
							OFFSET 0.000000 14.246841 0.000000
						}
					}
				}
				JOINT HairG
				{
					OFFSET -8.087700 17.612701 -11.592200
					CHANNELS 3 Xrotation Yrotation Zrotation
					JOINT HairG1
					{
						OFFSET -0.293600 -6.081398 -0.910100
						CHANNELS 3 Xrotation Yrotation Zrotation
						End Site
						{
							OFFSET 0.000000 6.156120 0.000000
						}
					}
				}
			}
		}
	}
	JOINT Pouch
	{
		OFFSET 0.000000 4.394501 10.847300
		CHANNELS 3 Xrotation Yrotation Zrotation
		End Site
		{
			OFFSET 0.000000 21.880577 0.000000
		}
	}
	JOINT Bag
	{
		OFFSET -13.229000 4.813004 -0.593300
		CHANNELS 3 Xrotation Yrotation Zrotation
		End Site
		{
			OFFSET 0.000000 21.880577 0.000000
		}
	}
	JOINT OccupyGuyFacialAnim_Joint
	{
		OFFSET 1.000000 -70.206398 -1.655000
		CHANNELS 3 Xrotation Yrotation Zrotation
		End Site
		{
			OFFSET 0.000000 21.880577 0.000000
		}
	}
}
MOTION
Frames: 4
Frame Time: 0.033333
-1.640067 67.902603 0.009283 -0.936589 -15.291620 0.676959 0.000000 -0.000001 0.000000 -24.282509 6.010690 8.835410 28.380107 2.400493 1.291333 -2.733283 0.562119 -6.729255 0.000000 -0.000000 -0.000000 -0.000002 -0.000001 -0.000000 -9.534554 -11.559235 -12.002241 34.190735 -6.585222 0.461126 -22.206951 -2.406914 10.091605 -0.000000 0.000002 0.000000 0.000000 -0.000001 -0.000000 14.699506 4.471205 4.578450 4.489354 0.932285 -0.587783 4.484402 1.019473 -0.551093 -18.231703 -5.541804 2.345408 -11.637085 4.316733 -6.804555 -0.000000 0.000000 -0.000000 -0.000000 0.000000 -0.000000 -0.000000 0.000000 0.000000 -0.000000 0.000000 -0.000000 -0.000000 0.000000 -0.000000 -0.000000 0.000000 -0.000000 -0.000000 0.000000 -0.000000 -0.000000 0.000000 -0.000000 -0.000000 0.000000 -0.000000 7.923311 -19.278585 10.689695 -28.535246 -5.574321 -95.159029 -0.003513 -41.810740 -1.929993 -27.872209 -6.457528 -3.128480 -9.446848 3.905941 -4.375775 23.931327 0.185853 -13.756140 0.000001 0.000003 -0.000002 -4.725037 11.352534 -21.799616 -0.823856 3.059560 -8.698588 0.000001 0.000001 -0.000003 0.224862 17.129124 -25.476353 0.002648 0.007659 -22.910526 0.000006 -0.000001 -0.000001 -6.460110 23.120489 -29.274423 0.004371 0.961019 -12.932518 -0.000001 0.000000 -0.000002 -17.103128 22.123483 -27.668128 0.001584 0.005894 -10.792144 -0.000001 -0.000000 0.000001 0.000001 -0.000003 0.000001 13.959860 25.665418 -22.603224 -35.686547 -8.509483 82.459515 0.000097 57.894992 10.343294 -16.053250 10.432359 7.118106 9.347180 2.810545 -11.364537 16.169080 -43.266007 15.843570 -0.000000 -0.000001 0.000001 17.076789 -0.396558 31.924335 -0.204426 -0.284189 112.811571 -0.000000 -0.000000 -0.000002 9.205488 -5.035907 102.738073 0.014969 -0.019230 61.018492 0.000000 0.000001 -0.000001 5.569131 -8.935211 107.329067 0.547987 -0.005789 41.263703 0.000001 0.000001 -0.000002 6.511252 -17.148261 98.228017 0.007410 -0.015755 43.845727 -0.000001 0.000000 -0.000003 -0.000000 -0.000001 0.000003 -0.000000 -0.000001 -0.000001 -0.000000 -0.000000 -0.000001 -0.000000 -0.000001 -0.000001 -0.000000 -0.000001 -0.000001 -0.000000 -0.000001 -0.000001 -0.000000 -0.000000 -0.000001 -0.000000 -0.000001 -0.000001 -0.000000 -0.000001 -0.000001 -0.000000 -0.000001 -0.000001 -0.000000 -0.000000 -0.000001 0.000000 -0.000001 0.000000 0.000000 -0.000001 0.000000 0.000000 -0.000001 0.000000 
-1.381117 67.869278 -0.000616 0.069269 -15.006762 0.649972 -0.000000 0.000001 0.000000 -25.598758 5.656591 8.753968 28.757794 2.474041 1.339414 -2.805185 0.547928 -6.518455 -0.000000 0.000000 -0.000000 -0.000000 -0.000000 0.000000 -10.378272 -11.376922 -11.939095 33.980775 -6.934564 0.712424 -21.914993 -2.435879 10.258087 -0.000000 0.000001 0.000000 -0.000001 -0.000001 -0.000000 16.529734 4.385893 3.664775 4.347751 0.958525 -0.645696 4.342531 1.043365 -0.614189 -17.199562 -4.471698 2.583745 -11.291867 5.275876 -6.250165 0.000000 -0.000001 -0.000000 0.000000 -0.000001 -0.000000 0.000000 -0.000001 0.000000 0.000000 -0.000001 -0.000000 0.000001 0.000000 0.000000 0.000000 -0.000001 -0.000000 0.000001 0.000000 0.000000 0.000000 -0.000001 -0.000000 0.000000 -0.000001 -0.000000 7.938995 -18.817441 10.851496 -31.401446 -3.472490 -95.040416 -0.000710 -38.565987 -3.464772 -25.393320 -8.675670 -6.845304 -9.121351 3.589864 -4.834953 25.530638 0.826841 -14.454217 0.000001 -0.000002 -0.000002 -4.724142 11.354313 -26.345546 -0.823677 3.060601 -11.128005 0.000004 0.000000 -0.000002 0.163518 17.073210 -29.566222 0.003466 0.009457 -27.483722 0.000003 -0.000001 -0.000003 -6.561196 23.129017 -32.861416 0.004775 0.962867 -17.079197 0.000000 0.000000 0.000000 -17.102688 22.124231 -29.631082 0.002114 0.008824 -17.616241 -0.000001 0.000000 0.000001 0.000002 -0.000001 0.000002 13.792851 26.161863 -22.020424 -37.069537 -7.576314 82.511690 -0.000130 58.015333 9.497282 -16.250815 11.514585 7.367020 9.347179 2.810543 -11.364542 16.169085 -43.266004 15.843571 -0.000001 -0.000003 0.000003 17.076791 -0.396556 31.924332 -0.204428 -0.284189 112.811571 -0.000002 0.000000 0.000002 9.205486 -5.035909 102.738073 0.014970 -0.019230 61.018485 0.000001 0.000002 -0.000001 5.569133 -8.935211 107.329067 0.547990 -0.005791 41.263697 0.000001 0.000001 -0.000002 6.511253 -17.148259 98.228017 0.007412 -0.015753 43.845730 -0.000001 -0.000000 -0.000001 -0.000000 0.000001 0.000000 -0.000002 0.000000 -0.000000 -0.000002 0.000000 0.000000 -0.000002 0.000000 0.000000 -0.000002 0.000000 0.000000 -0.000002 0.000000 -0.000000 -0.000002 0.000000 0.000000 -0.000002 0.000000 0.000000 -0.000002 0.000000 0.000000 -0.000002 0.000000 -0.000000 -0.000002 0.000000 0.000000 -0.000000 0.000001 0.000000 -0.000000 0.000001 0.000000 -0.000000 0.000001 0.000000 
-1.135826 67.834900 0.017313 1.018377 -14.856998 0.449795 -0.000000 0.000001 -0.000000 -26.917284 5.301847 8.830695 29.308349 2.595444 1.467020 -3.002134 0.546660 -6.379771 -0.000000 0.000000 0.000000 0.000003 0.000000 -0.000000 -11.087855 -11.268468 -11.734712 33.652755 -7.125386 0.970605 -21.590233 -2.444330 10.360262 0.000000 -0.000001 -0.000000 -0.000000 0.000001 -0.000001 17.894438 4.393966 2.961027 4.247505 1.003989 -0.625173 4.241935 1.087598 -0.598642 -16.247306 -3.442935 2.669659 -11.206636 5.977354 -5.803925 0.000000 0.000000 0.000000 0.000000 0.000000 0.000000 0.000000 0.000000 0.000000 0.000000 0.000000 -0.000000 0.000000 0.000000 0.000000 0.000000 0.000000 -0.000000 0.000000 0.000000 0.000000 0.000000 0.000000 0.000000 0.000000 0.000000 0.000000 7.940167 -19.014456 10.751009 -33.118170 -1.804071 -94.289163 -0.000004 -36.783922 -3.969096 -23.966273 -10.754481 -9.061586 -8.812528 3.282528 -5.270880 27.091156 3.299911 -14.226570 -0.000001 0.000001 -0.000001 -4.722322 11.357118 -34.005084 -0.823213 3.062580 -15.843908 -0.000001 0.000001 0.000000 0.246915 17.118734 -35.940862 0.005304 0.012581 -35.799897 0.000002 0.000001 0.000001 -8.733061 23.421863 -36.890115 0.006006 0.966461 -25.340465 -0.000000 0.000001 -0.000002 -17.102225 22.124969 -31.594450 0.003789 0.013582 -29.202228 -0.000002 -0.000001 0.000001 0.000001 0.000000 -0.000001 13.767040 26.526305 -22.158278 -38.106725 -6.983542 82.837006 -0.000037 58.010135 8.462889 -16.893500 12.508441 7.985859 9.347178 2.810541 -11.364538 16.169078 -43.266001 15.843575 -0.000001 -0.000004 0.000003 17.076789 -0.396557 31.924335 -0.204428 -0.284189 112.811571 0.000001 0.000002 -0.000001 9.205485 -5.035908 102.738073 0.014968 -0.019231 61.018492 0.000001 0.000000 0.000001 5.569130 -8.935211 107.329067 0.547991 -0.005793 41.263700 -0.000001 -0.000002 -0.000003 6.511252 -17.148257 98.228017 0.007409 -0.015753 43.845730 -0.000001 0.000004 -0.000001 0.000000 -0.000001 0.000003 0.000001 -0.000001 -0.000000 0.000001 0.000001 -0.000001 0.000001 -0.000001 -0.000000 0.000001 -0.000001 -0.000000 0.000001 -0.000001 -0.000000 0.000001 0.000001 -0.000001 0.000001 -0.000001 -0.000000 0.000001 -0.000001 -0.000000 0.000001 -0.000001 -0.000000 0.000001 0.000001 -0.000001 -0.000000 0.000001 -0.000000 -0.000000 0.000001 -0.000000 -0.000000 0.000001 -0.000000 
-0.902449 67.790596 0.042726 2.039131 -14.800994 0.290431 -0.000000 0.000000 -0.000000 -28.276430 4.884327 8.884437 29.881610 2.863182 1.603276 -3.223410 0.550583 -6.301062 -0.000000 -0.000000 -0.000000 0.000001 0.000000 -0.000000 -11.910897 -11.116000 -11.509730 33.378588 -7.297541 1.141840 -21.295599 -2.461404 10.489222 -0.000000 -0.000001 -0.000000 -0.000000 -0.000002 -0.000000 18.917167 4.457330 2.361323 4.075042 1.056408 -0.610792 4.069258 1.139057 -0.589705 -15.261976 -2.510718 2.719624 -11.387003 6.405485 -5.330625 -0.000000 -0.000000 -0.000000 -0.000000 -0.000000 -0.000000 -0.000000 -0.000000 -0.000000 -0.000000 -0.000000 -0.000000 -0.000000 -0.000000 -0.000000 -0.000000 -0.000000 -0.000000 -0.000000 -0.000000 -0.000000 -0.000000 -0.000000 -0.000000 -0.000000 -0.000000 -0.000000 7.919778 -19.609277 10.520016 -33.841064 -0.728909 -93.075063 0.000037 -36.542841 -4.068431 -23.047985 -11.999077 -9.992763 -8.523370 2.988039 -5.679324 28.582219 7.427542 -13.150561 -0.000002 -0.000000 -0.000002 -4.719274 11.360507 -44.424302 -0.822291 3.065339 -22.561518 -0.000002 0.000000 -0.000004 0.466009 17.197718 -44.439232 0.008499 0.016320 -47.137823 0.000002 0.000000 0.000001 -12.645878 24.485948 -41.617944 0.008604 0.971155 -37.030448 -0.000000 -0.000000 0.000001 -17.101732 22.125682 -33.553519 0.007413 0.019206 -44.652659 -0.000001 0.000000 -0.000001 0.000001 0.000001 -0.000001 13.832643 26.682481 -22.642332 -38.857510 -6.749402 83.517641 0.000103 58.024766 7.383025 -17.161223 13.285410 8.703044 9.347178 2.810546 -11.364536 16.169083 -43.265994 15.843575 0.000003 0.000000 -0.000000 17.076789 -0.396556 31.924332 -0.204430 -0.284189 112.811571 -0.000001 0.000000 -0.000001 9.205486 -5.035904 102.738080 0.014970 -0.019230 61.018485 0.000001 0.000000 -0.000001 5.569131 -8.935211 107.329074 0.547988 -0.005789 41.263700 -0.000000 -0.000001 -0.000002 6.511252 -17.148259 98.228017 0.007412 -0.015750 43.845730 -0.000001 -0.000003 0.000002 -0.000000 -0.000004 -0.000001 0.000001 -0.000001 -0.000000 0.000001 -0.000001 -0.000000 0.000001 -0.000001 0.000000 0.000001 -0.000001 0.000000 0.000001 -0.000001 -0.000000 0.000001 -0.000001 -0.000000 0.000001 -0.000001 0.000000 0.000001 -0.000001 0.000000 0.000001 -0.000001 -0.000000 0.000001 -0.000001 -0.000000 -0.000000 0.000000 -0.000000 -0.000000 0.000000 -0.000000 -0.000000 0.000000 -0.000000 
